<mxfile host="Electron" modified="2023-12-08T22:54:07.822Z" agent="Mozilla/5.0 (X11; Linux x86_64) AppleWebKit/537.36 (KHTML, like Gecko) draw.io/22.1.2 Chrome/114.0.5735.289 Electron/25.9.4 Safari/537.36" etag="u4WqrK84VfoOrFxceUyz" version="22.1.2" type="device">
  <diagram name="WiFi Manager Overview" id="fo18u6Ch1KVScq3Fo-Wy">
    <mxGraphModel dx="1904" dy="1254" grid="1" gridSize="10" guides="1" tooltips="1" connect="1" arrows="1" fold="1" page="1" pageScale="1" pageWidth="800" pageHeight="350" background="#999999" math="0" shadow="0">
      <root>
        <object label="" description="Overview of &quot;WiFi Manager&quot; Component and its Interfaces with the Software Architecture." rev="1.0" id="0">
          <mxCell />
        </object>
        <object label="Title Block" id="1">
          <mxCell style="locked=1;" parent="0" />
        </object>
        <mxCell id="h7L3MlKvrl_dhOmhB3lf-10" value="Prepared with: draw.io v22.1.2" style="strokeWidth=1;shadow=0;dashed=0;align=center;html=1;shape=mxgraph.mockup.text.textBox;fontColor=#666666;align=left;fontSize=17;spacingLeft=4;spacingTop=-3;whiteSpace=wrap;strokeColor=#333333;mainText=;fillColor=none;fontFamily=Open Sans;movable=1;resizable=1;rotatable=1;deletable=1;editable=1;locked=0;connectable=1;" parent="1" vertex="1">
          <mxGeometry x="220" y="300" width="280" height="30" as="geometry" />
        </mxCell>
        <object label="&lt;div align=&quot;left&quot;&gt;Sheet %pagenumber%/%pagecount%&lt;/div&gt;" placeholders="1" id="h7L3MlKvrl_dhOmhB3lf-12">
          <mxCell style="strokeWidth=1;shadow=0;dashed=0;align=left;html=1;shape=mxgraph.mockup.text.textBox;fontColor=#666666;align=left;fontSize=17;spacingLeft=4;spacingTop=-3;whiteSpace=wrap;strokeColor=#333333;mainText=;fillColor=none;fontFamily=Open Sans;movable=1;resizable=1;rotatable=1;deletable=1;editable=1;locked=0;connectable=1;" parent="1" vertex="1">
            <mxGeometry x="60" y="300" width="160" height="30" as="geometry" />
          </mxCell>
        </object>
        <object label="Date: &lt;font style=&quot;font-size: 17px;&quot;&gt;%date{ddd mmm dd yyyy HH:MM:ss}%&lt;/font&gt;" placeholders="1" id="h7L3MlKvrl_dhOmhB3lf-13">
          <mxCell style="strokeWidth=1;shadow=0;dashed=0;align=center;html=1;shape=mxgraph.mockup.text.textBox;fontColor=#666666;align=left;fontSize=17;spacingLeft=4;spacingTop=-3;whiteSpace=wrap;strokeColor=#333333;mainText=;fillColor=none;fontFamily=Open Sans;movable=1;resizable=1;rotatable=1;deletable=1;editable=1;locked=0;connectable=1;" parent="1" vertex="1">
            <mxGeometry x="500" y="300" width="280" height="30" as="geometry" />
          </mxCell>
        </object>
        <object label="&lt;b&gt;Title: %page%&lt;/b&gt;" placeholders="1" id="h7L3MlKvrl_dhOmhB3lf-14">
          <mxCell style="strokeWidth=1;shadow=0;dashed=0;align=center;html=1;shape=mxgraph.mockup.text.textBox;fontColor=#666666;align=left;fontSize=17;spacingLeft=4;spacingTop=-3;whiteSpace=wrap;strokeColor=#333333;mainText=;fillColor=none;fontFamily=Open Sans;movable=1;resizable=1;rotatable=1;deletable=1;editable=1;locked=0;connectable=1;" parent="1" vertex="1">
            <mxGeometry x="60" y="240" width="720" height="30" as="geometry" />
          </mxCell>
        </object>
        <object label="Filename: %filename%" placeholders="1" id="h7L3MlKvrl_dhOmhB3lf-15">
          <mxCell style="strokeWidth=1;shadow=0;dashed=0;align=center;html=1;shape=mxgraph.mockup.text.textBox;fontColor=#666666;align=left;fontSize=17;spacingLeft=4;spacingTop=-3;whiteSpace=wrap;strokeColor=#333333;mainText=;fillColor=none;fontFamily=Open Sans;movable=1;resizable=1;rotatable=1;deletable=1;editable=1;locked=0;connectable=1;" parent="1" vertex="1">
            <mxGeometry x="60" y="270" width="480" height="30" as="geometry" />
          </mxCell>
        </object>
        <object label="&lt;div align=&quot;left&quot;&gt;%description%&lt;/div&gt;" placeholders="1" id="h7L3MlKvrl_dhOmhB3lf-16">
          <mxCell style="strokeWidth=1;shadow=0;dashed=0;html=1;shape=mxgraph.mockup.text.textBox;fontColor=#666666;align=left;verticalAlign=top;fontSize=12;spacingLeft=4;spacingTop=-3;whiteSpace=wrap;strokeColor=#333333;mainText=;fillColor=none;fontFamily=Open Sans;movable=1;resizable=1;rotatable=1;deletable=1;editable=1;locked=0;connectable=1;" parent="1" vertex="1">
            <mxGeometry x="60" y="200" width="720" height="40" as="geometry" />
          </mxCell>
        </object>
        <object label="&lt;b&gt;Rev: %rev%&lt;br&gt;&lt;/b&gt;" placeholders="1" id="EyKvBmyPNv_MzgSUc5b6-1">
          <mxCell style="strokeWidth=1;shadow=0;dashed=0;align=center;html=1;shape=mxgraph.mockup.text.textBox;fontColor=#666666;align=left;fontSize=17;spacingLeft=4;spacingTop=-3;whiteSpace=wrap;strokeColor=#333333;mainText=;fillColor=none;fontFamily=Open Sans;movable=1;resizable=1;rotatable=1;deletable=1;editable=1;locked=0;connectable=1;" parent="1" vertex="1">
            <mxGeometry x="540" y="270" width="240" height="30" as="geometry" />
          </mxCell>
        </object>
        <object label="Drawing Frame" id="2jkEU8j2_UPUL1MGRyPS-1">
          <mxCell style="locked=1;" parent="0" />
        </object>
        <mxCell id="2jkEU8j2_UPUL1MGRyPS-2" value="" style="rounded=0;whiteSpace=wrap;html=1;fillColor=none;strokeWidth=3;movable=1;resizable=1;rotatable=1;deletable=1;editable=1;locked=0;connectable=1;" parent="2jkEU8j2_UPUL1MGRyPS-1" vertex="1">
          <mxGeometry x="-20" y="-300" width="800" height="630" as="geometry" />
        </mxCell>
        <object label="Document" id="NbdiYjX3MhI7OpqD2NvG-1">
          <mxCell parent="0" />
        </object>
        <mxCell id="Sss9bJefdTC3gDfBGX2G-5" value="SDK" style="swimlane;horizontal=0;whiteSpace=wrap;html=1;fontFamily=Open Sans;fillColor=#f5f5f5;strokeColor=#666666;fontColor=#333333;" parent="NbdiYjX3MhI7OpqD2NvG-1" vertex="1">
          <mxGeometry x="10" width="590" height="170" as="geometry">
            <mxRectangle x="-260" width="40" height="140" as="alternateBounds" />
          </mxGeometry>
        </mxCell>
        <mxCell id="Sss9bJefdTC3gDfBGX2G-9" value="ESP SDK" style="swimlane;horizontal=0;whiteSpace=wrap;html=1;fontFamily=Open Sans;fillColor=#f5f5f5;strokeColor=#666666;fontColor=#333333;" parent="Sss9bJefdTC3gDfBGX2G-5" vertex="1">
          <mxGeometry x="240" y="10" width="340" height="150" as="geometry">
            <mxRectangle x="60" y="-60" width="40" height="140" as="alternateBounds" />
          </mxGeometry>
        </mxCell>
        <mxCell id="fZGnW5OTwj3B8Sxtl7bq-1" value="WiFiSoftAP" style="rounded=1;whiteSpace=wrap;html=1;fontFamily=Open Sans;fillColor=#dae8fc;strokeColor=#6c8ebf;strokeWidth=1;" parent="Sss9bJefdTC3gDfBGX2G-9" vertex="1">
          <mxGeometry x="70" y="80" width="120" height="60" as="geometry" />
        </mxCell>
        <mxCell id="fZGnW5OTwj3B8Sxtl7bq-3" value="DNSServer" style="rounded=1;whiteSpace=wrap;html=1;fontFamily=Open Sans;fillColor=#dae8fc;strokeColor=#6c8ebf;strokeWidth=1;" parent="Sss9bJefdTC3gDfBGX2G-9" vertex="1">
          <mxGeometry x="170" y="10" width="120" height="60" as="geometry" />
        </mxCell>
        <mxCell id="fZGnW5OTwj3B8Sxtl7bq-2" value="WebServer" style="rounded=1;whiteSpace=wrap;html=1;fontFamily=Open Sans;fillColor=#dae8fc;strokeColor=#6c8ebf;strokeWidth=1;" parent="Sss9bJefdTC3gDfBGX2G-9" vertex="1">
          <mxGeometry x="210" y="80" width="120" height="60" as="geometry" />
        </mxCell>
        <mxCell id="OhnMxUprd_XdarQAiaoQ-1" value="ChipId" style="rounded=1;whiteSpace=wrap;html=1;fontFamily=Open Sans;fillColor=#e1d5e7;strokeColor=#9673a6;" vertex="1" parent="Sss9bJefdTC3gDfBGX2G-9">
          <mxGeometry x="30" y="10" width="120" height="60" as="geometry" />
        </mxCell>
        <mxCell id="Sss9bJefdTC3gDfBGX2G-8" value="Arduino" style="swimlane;horizontal=0;whiteSpace=wrap;html=1;fillStyle=auto;fontFamily=Open Sans;fillColor=#f5f5f5;strokeColor=#666666;fontColor=#333333;" parent="Sss9bJefdTC3gDfBGX2G-5" vertex="1">
          <mxGeometry x="30" y="10" width="200" height="150" as="geometry">
            <mxRectangle x="60" y="-60" width="40" height="140" as="alternateBounds" />
          </mxGeometry>
        </mxCell>
        <mxCell id="Sss9bJefdTC3gDfBGX2G-13" value="WiFi" style="rounded=1;whiteSpace=wrap;html=1;fontFamily=Open Sans;fillColor=#e1d5e7;strokeColor=#9673a6;" parent="Sss9bJefdTC3gDfBGX2G-8" vertex="1">
          <mxGeometry x="70" y="80" width="120" height="60" as="geometry" />
        </mxCell>
        <mxCell id="tb5jybf7uf42myFAHZ4B-11" value="Wiring" style="rounded=1;whiteSpace=wrap;html=1;fontFamily=Open Sans;fillColor=#fff2cc;strokeColor=#d6b656;" parent="Sss9bJefdTC3gDfBGX2G-8" vertex="1">
          <mxGeometry x="30" y="10" width="120" height="60" as="geometry" />
        </mxCell>
        <mxCell id="lVKpyNV5w2mlOseutN5l-1" value="Drivers" style="swimlane;horizontal=0;whiteSpace=wrap;html=1;fontFamily=Open Sans;fillColor=#f5f5f5;fontColor=#333333;strokeColor=#666666;" parent="NbdiYjX3MhI7OpqD2NvG-1" vertex="1">
          <mxGeometry x="10" y="-90" width="590" height="80" as="geometry" />
        </mxCell>
        <mxCell id="lVKpyNV5w2mlOseutN5l-8" value="Middleware" style="swimlane;horizontal=0;whiteSpace=wrap;html=1;fontFamily=Open Sans;fillColor=#f5f5f5;fontColor=#333333;strokeColor=#666666;" parent="NbdiYjX3MhI7OpqD2NvG-1" vertex="1">
          <mxGeometry x="10" y="-180" width="590" height="80" as="geometry" />
        </mxCell>
        <mxCell id="lVKpyNV5w2mlOseutN5l-9" value="WiFiManager" style="rounded=1;whiteSpace=wrap;html=1;fontFamily=Open Sans;fillColor=#dae8fc;strokeColor=#6c8ebf;strokeWidth=4;" parent="lVKpyNV5w2mlOseutN5l-8" vertex="1">
          <mxGeometry x="340" y="10" width="120" height="60" as="geometry" />
        </mxCell>
        <mxCell id="lVKpyNV5w2mlOseutN5l-12" value="Application" style="swimlane;horizontal=0;whiteSpace=wrap;html=1;fontFamily=Open Sans;fillColor=#f5f5f5;fontColor=#333333;strokeColor=#666666;" parent="NbdiYjX3MhI7OpqD2NvG-1" vertex="1">
          <mxGeometry x="10" y="-270" width="590" height="80" as="geometry">
            <mxRectangle x="-290" y="-340" width="40" height="100" as="alternateBounds" />
          </mxGeometry>
        </mxCell>
        <mxCell id="lVKpyNV5w2mlOseutN5l-14" value="Connection Manager" style="rounded=1;whiteSpace=wrap;html=1;fontFamily=Open Sans;fillColor=#e1d5e7;strokeColor=#9673a6;strokeWidth=1;" parent="lVKpyNV5w2mlOseutN5l-12" vertex="1">
          <mxGeometry x="340" y="10" width="120" height="60" as="geometry" />
        </mxCell>
        <mxCell id="un4NKVT6_Mbu8oOSIWiY-5" value="&amp;lt;&amp;lt;use&amp;gt;&amp;gt;" style="edgeStyle=orthogonalEdgeStyle;rounded=0;orthogonalLoop=1;jettySize=auto;html=1;exitX=0.25;exitY=1;exitDx=0;exitDy=0;entryX=0.25;entryY=0;entryDx=0;entryDy=0;fontFamily=Open Sans;" parent="NbdiYjX3MhI7OpqD2NvG-1" source="lVKpyNV5w2mlOseutN5l-14" target="lVKpyNV5w2mlOseutN5l-9" edge="1">
          <mxGeometry x="-0.3333" relative="1" as="geometry">
            <mxPoint x="430" y="-170" as="targetPoint" />
            <mxPoint as="offset" />
          </mxGeometry>
        </mxCell>
        <mxCell id="tb5jybf7uf42myFAHZ4B-9" value="&amp;lt;&amp;lt;use&amp;gt;&amp;gt;" style="edgeStyle=orthogonalEdgeStyle;rounded=0;orthogonalLoop=1;jettySize=auto;html=1;fontFamily=Open Sans;exitX=0;exitY=0.75;exitDx=0;exitDy=0;entryX=0.75;entryY=0;entryDx=0;entryDy=0;" parent="NbdiYjX3MhI7OpqD2NvG-1" source="lVKpyNV5w2mlOseutN5l-9" target="Sss9bJefdTC3gDfBGX2G-13" edge="1">
          <mxGeometry x="0.2877" relative="1" as="geometry">
            <mxPoint as="offset" />
          </mxGeometry>
        </mxCell>
        <mxCell id="tb5jybf7uf42myFAHZ4B-12" value="&amp;lt;&amp;lt;use&amp;gt;&amp;gt;" style="edgeStyle=orthogonalEdgeStyle;rounded=0;orthogonalLoop=1;jettySize=auto;html=1;fontFamily=Open Sans;" parent="NbdiYjX3MhI7OpqD2NvG-1" source="lVKpyNV5w2mlOseutN5l-9" target="tb5jybf7uf42myFAHZ4B-11" edge="1">
          <mxGeometry x="0.6842" relative="1" as="geometry">
            <mxPoint as="offset" />
          </mxGeometry>
        </mxCell>
        <mxCell id="wFV4XHJ3uFBqJ7aXapcK-1" value="&amp;lt;&amp;lt;callback&amp;gt;" style="edgeStyle=orthogonalEdgeStyle;rounded=0;orthogonalLoop=1;jettySize=auto;html=1;entryX=0.75;entryY=1;entryDx=0;entryDy=0;exitX=0.75;exitY=0;exitDx=0;exitDy=0;dashed=1;fontFamily=Open Sans;" parent="NbdiYjX3MhI7OpqD2NvG-1" source="lVKpyNV5w2mlOseutN5l-9" target="lVKpyNV5w2mlOseutN5l-14" edge="1">
          <mxGeometry x="-0.3333" relative="1" as="geometry">
            <mxPoint as="offset" />
          </mxGeometry>
        </mxCell>
        <mxCell id="fZGnW5OTwj3B8Sxtl7bq-4" value="&amp;lt;&amp;lt;use&amp;gt;&amp;gt;" style="edgeStyle=orthogonalEdgeStyle;rounded=0;orthogonalLoop=1;jettySize=auto;html=1;fontFamily=Open Sans;exitX=0.5;exitY=1;exitDx=0;exitDy=0;entryX=0.75;entryY=0;entryDx=0;entryDy=0;" parent="NbdiYjX3MhI7OpqD2NvG-1" source="lVKpyNV5w2mlOseutN5l-9" target="fZGnW5OTwj3B8Sxtl7bq-1" edge="1">
          <mxGeometry x="-0.3" relative="1" as="geometry">
            <mxPoint as="offset" />
          </mxGeometry>
        </mxCell>
        <mxCell id="fZGnW5OTwj3B8Sxtl7bq-5" value="&amp;lt;&amp;lt;use&amp;gt;&amp;gt;" style="edgeStyle=orthogonalEdgeStyle;rounded=0;orthogonalLoop=1;jettySize=auto;html=1;fontFamily=Open Sans;exitX=0.75;exitY=1;exitDx=0;exitDy=0;" parent="NbdiYjX3MhI7OpqD2NvG-1" source="lVKpyNV5w2mlOseutN5l-9" target="fZGnW5OTwj3B8Sxtl7bq-3" edge="1">
          <mxGeometry x="0.2941" relative="1" as="geometry">
            <Array as="points">
              <mxPoint x="440" y="-70" />
              <mxPoint x="480" y="-70" />
            </Array>
            <mxPoint as="offset" />
          </mxGeometry>
        </mxCell>
        <mxCell id="fZGnW5OTwj3B8Sxtl7bq-6" value="&amp;lt;&amp;lt;use&amp;gt;&amp;gt;" style="edgeStyle=orthogonalEdgeStyle;rounded=0;orthogonalLoop=1;jettySize=auto;html=1;fontFamily=Open Sans;entryX=0.75;entryY=0;entryDx=0;entryDy=0;exitX=1;exitY=0.75;exitDx=0;exitDy=0;" parent="NbdiYjX3MhI7OpqD2NvG-1" source="lVKpyNV5w2mlOseutN5l-9" target="fZGnW5OTwj3B8Sxtl7bq-2" edge="1">
          <mxGeometry x="0.1186" relative="1" as="geometry">
            <mxPoint as="offset" />
          </mxGeometry>
        </mxCell>
        <mxCell id="UUSswwiXAfh8-ANvonmX-1" value="Shared Services" style="swimlane;whiteSpace=wrap;html=1;fontFamily=Open Sans;strokeColor=#666666;" parent="NbdiYjX3MhI7OpqD2NvG-1" vertex="1">
          <mxGeometry x="610" y="-270" width="140" height="440" as="geometry" />
        </mxCell>
        <mxCell id="UUSswwiXAfh8-ANvonmX-2" value="C++ stdlib" style="rounded=1;whiteSpace=wrap;html=1;fontFamily=Open Sans;fillColor=#f5f5f5;strokeColor=#666666;strokeWidth=1;fontColor=#333333;" parent="UUSswwiXAfh8-ANvonmX-1" vertex="1">
          <mxGeometry x="10" y="100" width="120" height="60" as="geometry" />
        </mxCell>
        <mxCell id="UUSswwiXAfh8-ANvonmX-3" value="&amp;lt;&amp;lt;use&amp;gt;&amp;gt;" style="edgeStyle=orthogonalEdgeStyle;rounded=0;orthogonalLoop=1;jettySize=auto;html=1;fontFamily=Open Sans;" parent="NbdiYjX3MhI7OpqD2NvG-1" source="lVKpyNV5w2mlOseutN5l-9" target="UUSswwiXAfh8-ANvonmX-2" edge="1">
          <mxGeometry relative="1" as="geometry" />
        </mxCell>
        <mxCell id="OhnMxUprd_XdarQAiaoQ-2" value="&amp;lt;&amp;lt;use&amp;gt;&amp;gt;" style="edgeStyle=orthogonalEdgeStyle;rounded=0;orthogonalLoop=1;jettySize=auto;html=1;fontFamily=Open Sans;exitX=0.25;exitY=1;exitDx=0;exitDy=0;" edge="1" parent="NbdiYjX3MhI7OpqD2NvG-1" source="lVKpyNV5w2mlOseutN5l-9" target="OhnMxUprd_XdarQAiaoQ-1">
          <mxGeometry x="0.2941" relative="1" as="geometry">
            <Array as="points">
              <mxPoint x="380" y="-70" />
              <mxPoint x="340" y="-70" />
            </Array>
            <mxPoint as="offset" />
          </mxGeometry>
        </mxCell>
      </root>
    </mxGraphModel>
  </diagram>
</mxfile>
